<?xml version="1.0" encoding="UTF-8"?>
<svg id="_레이어_2" data-name="레이어 2" xmlns="http://www.w3.org/2000/svg" viewBox="0 0 841.89 162.84">
  <defs>
    <style>
      .cls-1 {
        fill: #fc0;
      }

      .cls-2 {
        fill: #006fb9;
      }
    </style>
  </defs>
  <g id="Layer_1" data-name="Layer 1">
    <g>
      <g>
        <polygon class="cls-1" points="77.59 81.42 130.02 105.51 130.02 57.34 77.59 81.42"/>
        <path d="M15.65,89.13c-8.65,0-15.65-7.71-15.65-7.71,0,0,7.01-7.71,15.65-7.71s15.65,7.71,15.65,7.71c0,0-7.01,7.71-15.65,7.71Z"/>
        <path class="cls-2" d="M43.49,81.42c0,26.67-17.88,36.29-18.73,52.93-.99,19.53,19.58,28.49,19.58,28.49,0,0-14.24-13.21-8.79-28.2,5.95-16.37,24.42-31.47,24.42-53.22s-18.47-36.85-24.42-53.22C30.1,13.21,44.34,0,44.34,0c0,0-20.57,8.96-19.58,28.49.84,16.64,18.73,26.26,18.73,52.93Z"/>
      </g>
      <g>
        <path class="cls-2" d="M217.13,100.17c0,7.78.23,16.92.46,20.47h-14.29c.23-3.54.46-12.69.46-20.47v-37.39c0-7.78-.23-17.04-.46-20.47h14.29c-.23,3.43-.46,12.69-.46,20.47v37.39Z"/>
        <path class="cls-2" d="M239.88,120.64c.91-3.77,2.29-12.46,3.54-20.7l9.26-59.12h1.16c1.39,0,2.65.79,3.26,2.04l27.82,57.42,28.5-57.45c.61-1.23,1.87-2.01,3.24-2.01h1.41l7.43,60.83c1.14,8.35,2.06,13.72,3.32,18.98h-15.32c0-3.32-.46-7.78-1.14-14.52l-3.66-33.96-22.87,49.17h-1.11c-1.41,0-2.69-.82-3.28-2.11l-21.56-47.06-4.57,34.07c-.8,5.6-1.37,10.75-1.49,14.41h-13.95Z"/>
        <path class="cls-2" d="M416.3,104.74v-41.96c0-6.29.23-15.44.46-20.47h-13.72c.23,4.8.34,13.95.34,20.47v31.33l-38.87-42.19c-3.45-3.56-5.85-5.96-9.56-10.03-.68-.75-1.65-1.18-2.67-1.18h-1.38c.23,6.17.46,15.32.46,22.3v41.05c0,6.06-.23,13.38-.46,16.58h13.72c-.23-3.2-.34-10.52-.34-16.47l.11-36.02,40.24,43.34c2.04,2.17,6.02,6.59,8.39,9.29.69.78,1.68,1.23,2.72,1.23h1.01c-.34-6.63-.46-12.46-.46-17.27Z"/>
        <path class="cls-2" d="M841.43,104.74v-41.96c0-6.29.23-15.44.46-20.47h-13.72c.23,4.8.34,13.95.34,20.47v31.33l-38.87-42.19c-3.45-3.56-5.85-5.96-9.56-10.03-.68-.75-1.65-1.18-2.67-1.18h-1.38c.23,6.17.46,15.32.46,22.3v41.05c0,6.06-.23,13.38-.46,16.58h13.72c-.23-3.2-.34-10.52-.34-16.47l.11-36.02,40.24,43.34c2.04,2.17,6.02,6.59,8.39,9.29.69.78,1.68,1.23,2.72,1.23h1.01c-.34-6.63-.46-12.46-.46-17.27Z"/>
        <path class="cls-2" d="M456.1,109.43h15.72c7.89,0,16.12-.11,19.55-.34v12.01c-3.43-.23-11.66-.46-19.55-.46h-29.67c.23-6.29.46-15.32.46-20.47v-37.5c0-7.89-.23-16.92-.46-20.35h28.76c7.89,0,16.01-.34,19.55-.57v12.12c-3.54-.34-11.66-.46-19.55-.46h-14.81v20.35h14.23c7.78,0,14.98-.11,18.52-.34v11.89c-3.54-.23-10.75-.34-18.52-.34h-14.23v24.47Z"/>
        <path class="cls-2" d="M657.66,94.29c-.2-.26-3.07-4.02-5.15-6.98,8.06-2.66,15.28-9.06,15.28-21.21,0-13.72-9.95-23.78-28.13-23.78h-20.47c.34,3.43.46,12.69.46,20.47v37.85c0,7.78-.11,16.47-.46,20.01h14.41c-.34-3.54-.46-12.23-.46-20.01v-10.86h4.43c.85-.02,2.22-.07,2.95-.13,1.68,2.69,5.86,9.4,6.03,9.66,5.15,8.08,11.19,16.33,15.06,21.34h17.95c-7.75-7.28-14.71-17.1-21.91-26.35ZM639.89,79.93h-6.75v-26.99h5.95c10.06,0,15.09,6.52,15.09,13.49,0,8-5.95,13.49-14.29,13.49Z"/>
        <path class="cls-2" d="M703.75,42.31c-.23,3.09-.46,12.35-.46,20.47v26.53c0,12.81,7.55,20.81,17.61,20.81s17.61-8,17.61-20.81v-26.53c0-6.52-.11-15.67-.46-20.47h14.29c-.23,5.03-.34,14.18-.34,20.47v26.18c0,20.47-13.26,32.93-31.1,32.93s-31.1-12.35-31.1-32.93v-26.18c0-8.12-.23-17.38-.46-20.47h14.41Z"/>
        <path class="cls-2" d="M594.19,42.31c-.93,2.86-2.16,6.75-5.98,15.32l-16.72,39.65-9.32-21.96,7.64-17.12c3.79-8.23,6-12.81,7.82-15.89h-13.49c-1.02,3.2-2.57,7.09-5.49,14.18l-2.22,5.47-2.25-5.24c-3.41-7.66-4.79-11.09-5.83-14.41h-14.86c2.83,4.35,4.56,7.66,8.3,15.89,0,0,3.76,8.3,8.53,18.8l-8.87,20.61-18.07-42.15c-2.32-5.15-4.1-9.49-5.33-13.15h-16.24c2.69,4.35,5.02,9.15,8.08,15.89,0,0,27.04,58.65,28.33,61.49,1.22,2.68,2.88,2.45,3.05,2.42l14.64-32.78c6.72,14.79,13.41,29.51,13.93,30.58.69,1.43,1.44,1.93,1.88,2.11v.02c.22.08.35.09.35.09l28.52-63.58c3.61-8,5.42-11.66,7.77-16.24h-14.18Z"/>
      </g>
    </g>
  </g>
</svg>